<svg width="32" height="32" viewBox="0 0 32 32" fill="none" xmlns="http://www.w3.org/2000/svg">
<rect width="32" height="32" rx="3" fill="url(#paint0_angular_9611_54)"/>
<path d="M9.016 26.224C7.97067 26.224 7.064 26.064 6.296 25.744C5.528 25.424 4.94133 24.8587 4.536 24.048C4.152 23.2373 3.96 22.096 3.96 20.624V19.536C4.472 19.536 4.99467 19.536 5.528 19.536C6.06133 19.536 6.584 19.536 7.096 19.536V20.88C7.096 21.776 7.18133 22.4693 7.352 22.96C7.52267 23.4507 7.75733 23.792 8.056 23.984C8.35467 24.1547 8.696 24.24 9.08 24.24C9.69867 24.24 10.1893 24.0373 10.552 23.632C10.936 23.2053 11.128 22.416 11.128 21.264C11.128 20.4107 11 19.7707 10.744 19.344C10.488 18.9173 10.0827 18.576 9.528 18.32C8.99467 18.0427 8.30133 17.7333 7.448 17.392C6.744 17.072 6.136 16.6987 5.624 16.272C5.112 15.8453 4.728 15.3013 4.472 14.64C4.216 13.9787 4.088 13.1573 4.088 12.176C4.088 10.9813 4.23733 10.0107 4.536 9.264C4.856 8.496 5.38933 7.94133 6.136 7.6C6.88267 7.23733 7.88533 7.056 9.144 7.056C10.7653 7.056 12.0027 7.42933 12.856 8.176C13.7093 8.90133 14.136 9.968 14.136 11.376V13.584C13.6453 13.584 13.144 13.584 12.632 13.584C12.1413 13.584 11.64 13.584 11.128 13.584V12.272C11.128 11.2907 10.968 10.5867 10.648 10.16C10.3493 9.712 9.85867 9.488 9.176 9.488C8.472 9.488 7.96 9.70133 7.64 10.128C7.34133 10.5333 7.192 11.184 7.192 12.08C7.192 12.848 7.34133 13.4453 7.64 13.872C7.93867 14.2773 8.32267 14.5973 8.792 14.832C9.28267 15.0667 9.784 15.28 10.296 15.472C11.256 15.8347 12.0347 16.208 12.632 16.592C13.2293 16.976 13.6667 17.488 13.944 18.128C14.2213 18.768 14.36 19.6747 14.36 20.848C14.36 22.192 14.136 23.2587 13.688 24.048C13.2613 24.816 12.6427 25.3707 11.832 25.712C11.0427 26.0533 10.104 26.224 9.016 26.224ZM21.4573 26.352C20.7319 26.352 20.0493 26.2347 19.4093 26C18.7693 25.7867 18.2466 25.3493 17.8413 24.688C17.4573 24.0053 17.2653 22.992 17.2653 21.648V11.088C17.2653 9.936 17.4786 9.06133 17.9053 8.464C18.3319 7.84533 18.9293 7.42933 19.6973 7.216C20.4653 6.98133 21.3506 6.864 22.3533 6.864C23.3559 6.864 24.2413 6.98133 25.0093 7.216C25.7773 7.45067 26.3746 7.87733 26.8013 8.496C27.2493 9.09333 27.4733 9.95733 27.4733 11.088V13.648H24.4973V10.96C24.4973 10.32 24.4013 9.84 24.2093 9.52C24.0386 9.2 23.7933 8.98667 23.4733 8.88C23.1746 8.77333 22.8119 8.72 22.3853 8.72C22.0013 8.72 21.6493 8.77333 21.3293 8.88C21.0093 8.98667 20.7533 9.2 20.5613 9.52C20.3906 9.84 20.3053 10.32 20.3053 10.96V22.32C20.3053 22.96 20.3906 23.44 20.5613 23.76C20.7533 24.08 21.0093 24.2933 21.3293 24.4C21.6493 24.5067 22.0013 24.56 22.3853 24.56C23.0039 24.56 23.5053 24.3787 23.8893 24.016C24.2946 23.632 24.4973 23.0667 24.4973 22.32V18.48H22.6093V16.72H27.4733V26H25.1693L25.0093 24.4C24.9666 24.4853 24.9133 24.5813 24.8493 24.688C24.7853 24.7733 24.7319 24.848 24.6893 24.912C24.4333 25.296 24.0493 25.6373 23.5373 25.936C23.0466 26.2133 22.3533 26.352 21.4573 26.352Z" fill="white"/>
<defs>
<radialGradient id="paint0_angular_9611_54" cx="0" cy="0" r="1" gradientUnits="userSpaceOnUse" gradientTransform="translate(5.13031 12.4985) rotate(60.8657) scale(22.3262 18.8379)">
<stop offset="0.0895454" stop-color="#003D85"/>
<stop offset="0.870294" stop-color="#B80027"/>
</radialGradient>
</defs>
</svg>
